# xmcd
#
# Track frame offsets: 
#        150
#        12422
#        27150
#        42125
#        54875
#        76587
#        92962
#        106212
#        122200
#        137475
#
# Disc length: 2002 seconds
#
# Revision: 2
# Processed by: cddbd v1.5.1PL0 Copyright (c) Steve Scherf et al.
# Submitted via: ExactAudioCopy v0.90b4
#
DISCID=7007d00a
DTITLE=Ricky Van Shelton - Platinum 2CDs - Disc 2
DYEAR=1996
DGENRE=Country
TTITLE0=Working Man Blues
TTITLE1=He's Got You
TTITLE2=Crazy Over You
TTITLE3=Call Me Up
TTITLE4=Supper Time
TTITLE5=Life's Little Ups And Downs
TTITLE6=Heartache As Big As Texas
TTITLE7=A Bridge I Didn't Burn
TTITLE8=Life Turned Her That Way
TTITLE9=Oh, Pretty Woman
EXTD=YEAR: 1996 ID3G: 2
EXTT0=
EXTT1=
EXTT2=
EXTT3=
EXTT4=
EXTT5=
EXTT6=
EXTT7=
EXTT8=
EXTT9=
PLAYORDER=
